<mxfile host="app.diagrams.net" modified="2022-10-22T15:05:19.074Z" agent="5.0 (Windows NT 10.0; Win64; x64) AppleWebKit/537.36 (KHTML, like Gecko) Chrome/106.0.0.0 Safari/537.36" etag="yicRAFLEmf3HsQMYGjwy" version="20.3.0" type="github">
  <diagram id="8-v9Z0RoxdPCG_60SAat" name="Page-1">
    <mxGraphModel dx="2272" dy="786" grid="1" gridSize="10" guides="1" tooltips="1" connect="1" arrows="1" fold="1" page="1" pageScale="1" pageWidth="850" pageHeight="1100" math="0" shadow="0">
      <root>
        <mxCell id="0" />
        <mxCell id="1" parent="0" />
        <mxCell id="-tF7ZBKWb7ZHzIYpN41H-1" value="Empresa" style="whiteSpace=wrap;html=1;align=center;fillColor=#dae8fc;strokeColor=#6c8ebf;" parent="1" vertex="1">
          <mxGeometry x="420" y="272" width="100" height="40" as="geometry" />
        </mxCell>
        <mxCell id="-tF7ZBKWb7ZHzIYpN41H-3" value="Proveedor" style="whiteSpace=wrap;html=1;align=center;fillColor=#dae8fc;strokeColor=#6c8ebf;" parent="1" vertex="1">
          <mxGeometry x="60" y="272" width="100" height="40" as="geometry" />
        </mxCell>
        <mxCell id="-tF7ZBKWb7ZHzIYpN41H-4" value="tiene" style="shape=rhombus;perimeter=rhombusPerimeter;whiteSpace=wrap;html=1;align=center;fillColor=#fff2cc;strokeColor=#d6b656;" parent="1" vertex="1">
          <mxGeometry x="230" y="262" width="120" height="60" as="geometry" />
        </mxCell>
        <mxCell id="-tF7ZBKWb7ZHzIYpN41H-5" value="surte" style="shape=rhombus;perimeter=rhombusPerimeter;whiteSpace=wrap;html=1;align=center;fillColor=#fff2cc;strokeColor=#d6b656;" parent="1" vertex="1">
          <mxGeometry x="50" y="633" width="120" height="60" as="geometry" />
        </mxCell>
        <mxCell id="-tF7ZBKWb7ZHzIYpN41H-6" value="Cliente" style="whiteSpace=wrap;html=1;align=center;fillColor=#dae8fc;strokeColor=#6c8ebf;" parent="1" vertex="1">
          <mxGeometry x="700" y="400" width="100" height="40" as="geometry" />
        </mxCell>
        <mxCell id="-tF7ZBKWb7ZHzIYpN41H-7" value="contiene" style="shape=rhombus;perimeter=rhombusPerimeter;whiteSpace=wrap;html=1;align=center;fillColor=#fff2cc;strokeColor=#d6b656;" parent="1" vertex="1">
          <mxGeometry x="260" y="743" width="120" height="60" as="geometry" />
        </mxCell>
        <mxCell id="-tF7ZBKWb7ZHzIYpN41H-8" value="compra" style="shape=rhombus;perimeter=rhombusPerimeter;whiteSpace=wrap;html=1;align=center;fillColor=#fff2cc;strokeColor=#d6b656;" parent="1" vertex="1">
          <mxGeometry x="690" y="503" width="120" height="60" as="geometry" />
        </mxCell>
        <mxCell id="-tF7ZBKWb7ZHzIYpN41H-9" value="vende" style="shape=rhombus;perimeter=rhombusPerimeter;whiteSpace=wrap;html=1;align=center;fillColor=#fff2cc;strokeColor=#d6b656;" parent="1" vertex="1">
          <mxGeometry x="410" y="430" width="120" height="60" as="geometry" />
        </mxCell>
        <mxCell id="-tF7ZBKWb7ZHzIYpN41H-13" value="" style="rounded=1;absoluteArcSize=1;html=1;arcSize=10;fillColor=#dae8fc;strokeColor=#6c8ebf;" parent="1" vertex="1">
          <mxGeometry x="420" y="613" width="100" height="100" as="geometry" />
        </mxCell>
        <mxCell id="-tF7ZBKWb7ZHzIYpN41H-14" value="producto" style="html=1;shape=mxgraph.er.anchor;whiteSpace=wrap;" parent="-tF7ZBKWb7ZHzIYpN41H-13" vertex="1">
          <mxGeometry width="50" height="100" as="geometry" />
        </mxCell>
        <mxCell id="-tF7ZBKWb7ZHzIYpN41H-15" value="tipo" style="rounded=1;absoluteArcSize=1;html=1;arcSize=10;whiteSpace=wrap;points=[];strokeColor=inherit;fillColor=inherit;" parent="-tF7ZBKWb7ZHzIYpN41H-13" vertex="1">
          <mxGeometry x="50" y="5" width="45" height="90" as="geometry" />
        </mxCell>
        <mxCell id="-tF7ZBKWb7ZHzIYpN41H-16" value="nombres" style="ellipse;whiteSpace=wrap;html=1;align=center;fillColor=#fad9d5;strokeColor=#ae4132;" parent="1" vertex="1">
          <mxGeometry x="700" y="262" width="100" height="40" as="geometry" />
        </mxCell>
        <mxCell id="-tF7ZBKWb7ZHzIYpN41H-17" value="apellidos" style="ellipse;whiteSpace=wrap;html=1;align=center;fillColor=#fad9d5;strokeColor=#ae4132;" parent="1" vertex="1">
          <mxGeometry x="830" y="290" width="100" height="40" as="geometry" />
        </mxCell>
        <mxCell id="-tF7ZBKWb7ZHzIYpN41H-19" value="fecha de nacimiento" style="ellipse;whiteSpace=wrap;html=1;align=center;fillColor=#fad9d5;strokeColor=#ae4132;" parent="1" vertex="1">
          <mxGeometry x="860" y="440" width="100" height="40" as="geometry" />
        </mxCell>
        <mxCell id="-tF7ZBKWb7ZHzIYpN41H-20" value="calle" style="ellipse;whiteSpace=wrap;html=1;align=center;fillColor=#fad9d5;strokeColor=#ae4132;" parent="1" vertex="1">
          <mxGeometry x="1000" y="320" width="100" height="40" as="geometry" />
        </mxCell>
        <mxCell id="-tF7ZBKWb7ZHzIYpN41H-22" value="nombre" style="ellipse;whiteSpace=wrap;html=1;align=center;fillColor=#fad9d5;strokeColor=#ae4132;" parent="1" vertex="1">
          <mxGeometry x="580" y="733" width="100" height="40" as="geometry" />
        </mxCell>
        <mxCell id="-tF7ZBKWb7ZHzIYpN41H-24" value="precio unitario" style="ellipse;whiteSpace=wrap;html=1;align=center;fillColor=#fad9d5;strokeColor=#ae4132;" parent="1" vertex="1">
          <mxGeometry x="420" y="813" width="100" height="40" as="geometry" />
        </mxCell>
        <mxCell id="-tF7ZBKWb7ZHzIYpN41H-25" value="nombre" style="ellipse;whiteSpace=wrap;html=1;align=center;fillColor=#fad9d5;strokeColor=#ae4132;" parent="1" vertex="1">
          <mxGeometry x="60" y="180" width="100" height="40" as="geometry" />
        </mxCell>
        <mxCell id="-tF7ZBKWb7ZHzIYpN41H-26" value="clave" style="ellipse;whiteSpace=wrap;html=1;align=center;fontStyle=4;fillColor=#fad9d5;strokeColor=#ae4132;" parent="1" vertex="1">
          <mxGeometry x="-110" y="272" width="100" height="40" as="geometry" />
        </mxCell>
        <mxCell id="-tF7ZBKWb7ZHzIYpN41H-27" value="dirección" style="ellipse;whiteSpace=wrap;html=1;align=center;fillColor=#fad9d5;strokeColor=#ae4132;" parent="1" vertex="1">
          <mxGeometry x="-110" y="180" width="100" height="40" as="geometry" />
        </mxCell>
        <mxCell id="-tF7ZBKWb7ZHzIYpN41H-28" value="nombre" style="ellipse;whiteSpace=wrap;html=1;align=center;fontStyle=4;fillColor=#fad9d5;strokeColor=#ae4132;" parent="1" vertex="1">
          <mxGeometry x="420" y="180" width="100" height="40" as="geometry" />
        </mxCell>
        <mxCell id="-tF7ZBKWb7ZHzIYpN41H-29" value="código" style="ellipse;whiteSpace=wrap;html=1;align=center;fontStyle=4;fillColor=#fad9d5;strokeColor=#ae4132;" parent="1" vertex="1">
          <mxGeometry x="530" y="790" width="100" height="40" as="geometry" />
        </mxCell>
        <mxCell id="-tF7ZBKWb7ZHzIYpN41H-30" value="dirección" style="ellipse;shape=doubleEllipse;margin=3;whiteSpace=wrap;html=1;align=center;fillColor=#fad9d5;strokeColor=#ae4132;" parent="1" vertex="1">
          <mxGeometry x="850" y="360" width="100" height="40" as="geometry" />
        </mxCell>
        <mxCell id="-tF7ZBKWb7ZHzIYpN41H-32" value="colonia" style="ellipse;whiteSpace=wrap;html=1;align=center;fillColor=#fad9d5;strokeColor=#ae4132;" parent="1" vertex="1">
          <mxGeometry x="1000" y="390" width="100" height="40" as="geometry" />
        </mxCell>
        <mxCell id="-tF7ZBKWb7ZHzIYpN41H-33" value="" style="endArrow=none;html=1;rounded=0;entryX=0.5;entryY=1;entryDx=0;entryDy=0;exitX=0.5;exitY=0;exitDx=0;exitDy=0;" parent="1" source="-tF7ZBKWb7ZHzIYpN41H-6" target="-tF7ZBKWb7ZHzIYpN41H-16" edge="1">
          <mxGeometry relative="1" as="geometry">
            <mxPoint x="510" y="570" as="sourcePoint" />
            <mxPoint x="670" y="570" as="targetPoint" />
          </mxGeometry>
        </mxCell>
        <mxCell id="-tF7ZBKWb7ZHzIYpN41H-34" value="" style="endArrow=none;html=1;rounded=0;entryX=0;entryY=1;entryDx=0;entryDy=0;exitX=0.75;exitY=0;exitDx=0;exitDy=0;" parent="1" source="-tF7ZBKWb7ZHzIYpN41H-6" target="-tF7ZBKWb7ZHzIYpN41H-17" edge="1">
          <mxGeometry relative="1" as="geometry">
            <mxPoint x="510" y="570" as="sourcePoint" />
            <mxPoint x="670" y="570" as="targetPoint" />
          </mxGeometry>
        </mxCell>
        <mxCell id="-tF7ZBKWb7ZHzIYpN41H-35" value="" style="endArrow=none;html=1;rounded=0;entryX=0;entryY=0.5;entryDx=0;entryDy=0;exitX=1;exitY=0.25;exitDx=0;exitDy=0;" parent="1" source="-tF7ZBKWb7ZHzIYpN41H-6" target="-tF7ZBKWb7ZHzIYpN41H-30" edge="1">
          <mxGeometry relative="1" as="geometry">
            <mxPoint x="810" y="400" as="sourcePoint" />
            <mxPoint x="780" y="490" as="targetPoint" />
          </mxGeometry>
        </mxCell>
        <mxCell id="-tF7ZBKWb7ZHzIYpN41H-36" value="" style="endArrow=none;html=1;rounded=0;entryX=0;entryY=0.5;entryDx=0;entryDy=0;exitX=1;exitY=0.75;exitDx=0;exitDy=0;" parent="1" source="-tF7ZBKWb7ZHzIYpN41H-6" target="-tF7ZBKWb7ZHzIYpN41H-19" edge="1">
          <mxGeometry relative="1" as="geometry">
            <mxPoint x="510" y="570" as="sourcePoint" />
            <mxPoint x="670" y="570" as="targetPoint" />
          </mxGeometry>
        </mxCell>
        <mxCell id="-tF7ZBKWb7ZHzIYpN41H-37" value="" style="endArrow=none;html=1;rounded=0;entryX=0;entryY=0.5;entryDx=0;entryDy=0;exitX=1;exitY=0;exitDx=0;exitDy=0;" parent="1" source="-tF7ZBKWb7ZHzIYpN41H-30" target="-tF7ZBKWb7ZHzIYpN41H-20" edge="1">
          <mxGeometry relative="1" as="geometry">
            <mxPoint x="510" y="570" as="sourcePoint" />
            <mxPoint x="670" y="570" as="targetPoint" />
          </mxGeometry>
        </mxCell>
        <mxCell id="-tF7ZBKWb7ZHzIYpN41H-38" value="" style="endArrow=none;html=1;rounded=0;entryX=0;entryY=0.5;entryDx=0;entryDy=0;exitX=1;exitY=1;exitDx=0;exitDy=0;" parent="1" source="-tF7ZBKWb7ZHzIYpN41H-30" target="-tF7ZBKWb7ZHzIYpN41H-32" edge="1">
          <mxGeometry relative="1" as="geometry">
            <mxPoint x="510" y="570" as="sourcePoint" />
            <mxPoint x="670" y="570" as="targetPoint" />
          </mxGeometry>
        </mxCell>
        <mxCell id="-tF7ZBKWb7ZHzIYpN41H-39" value="" style="fontSize=12;html=1;endArrow=ERoneToMany;rounded=0;entryX=0.5;entryY=1;entryDx=0;entryDy=0;exitX=0.5;exitY=0;exitDx=0;exitDy=0;" parent="1" source="-tF7ZBKWb7ZHzIYpN41H-8" target="-tF7ZBKWb7ZHzIYpN41H-6" edge="1">
          <mxGeometry width="100" height="100" relative="1" as="geometry">
            <mxPoint x="540" y="620" as="sourcePoint" />
            <mxPoint x="640" y="520" as="targetPoint" />
          </mxGeometry>
        </mxCell>
        <mxCell id="-tF7ZBKWb7ZHzIYpN41H-40" value="" style="edgeStyle=orthogonalEdgeStyle;fontSize=12;html=1;endArrow=ERzeroToMany;endFill=1;rounded=0;exitX=0.5;exitY=1;exitDx=0;exitDy=0;entryX=1;entryY=0.5;entryDx=0;entryDy=0;" parent="1" source="-tF7ZBKWb7ZHzIYpN41H-8" target="-tF7ZBKWb7ZHzIYpN41H-13" edge="1">
          <mxGeometry width="100" height="100" relative="1" as="geometry">
            <mxPoint x="540" y="583" as="sourcePoint" />
            <mxPoint x="640" y="483" as="targetPoint" />
          </mxGeometry>
        </mxCell>
        <mxCell id="-tF7ZBKWb7ZHzIYpN41H-42" value="" style="edgeStyle=entityRelationEdgeStyle;fontSize=12;html=1;endArrow=ERone;endFill=1;rounded=0;entryX=0;entryY=0.5;entryDx=0;entryDy=0;exitX=1;exitY=0.5;exitDx=0;exitDy=0;" parent="1" source="-tF7ZBKWb7ZHzIYpN41H-4" target="-tF7ZBKWb7ZHzIYpN41H-1" edge="1">
          <mxGeometry width="100" height="100" relative="1" as="geometry">
            <mxPoint x="540" y="620" as="sourcePoint" />
            <mxPoint x="640" y="520" as="targetPoint" />
          </mxGeometry>
        </mxCell>
        <mxCell id="-tF7ZBKWb7ZHzIYpN41H-44" value="" style="edgeStyle=entityRelationEdgeStyle;fontSize=12;html=1;endArrow=ERoneToMany;rounded=0;entryX=1;entryY=0.5;entryDx=0;entryDy=0;exitX=0;exitY=0.5;exitDx=0;exitDy=0;" parent="1" source="-tF7ZBKWb7ZHzIYpN41H-4" target="-tF7ZBKWb7ZHzIYpN41H-3" edge="1">
          <mxGeometry width="100" height="100" relative="1" as="geometry">
            <mxPoint x="540" y="620" as="sourcePoint" />
            <mxPoint x="640" y="520" as="targetPoint" />
          </mxGeometry>
        </mxCell>
        <mxCell id="-tF7ZBKWb7ZHzIYpN41H-45" value="" style="fontSize=12;html=1;endArrow=ERone;endFill=1;rounded=0;entryX=0.5;entryY=1;entryDx=0;entryDy=0;exitX=0.5;exitY=0;exitDx=0;exitDy=0;" parent="1" source="-tF7ZBKWb7ZHzIYpN41H-5" target="-tF7ZBKWb7ZHzIYpN41H-3" edge="1">
          <mxGeometry width="100" height="100" relative="1" as="geometry">
            <mxPoint x="540" y="620" as="sourcePoint" />
            <mxPoint x="640" y="520" as="targetPoint" />
          </mxGeometry>
        </mxCell>
        <mxCell id="-tF7ZBKWb7ZHzIYpN41H-46" value="" style="fontSize=12;html=1;endArrow=ERoneToMany;rounded=0;exitX=1;exitY=0.5;exitDx=0;exitDy=0;entryX=-0.06;entryY=0.49;entryDx=0;entryDy=0;entryPerimeter=0;" parent="1" source="-tF7ZBKWb7ZHzIYpN41H-5" target="-tF7ZBKWb7ZHzIYpN41H-14" edge="1">
          <mxGeometry width="100" height="100" relative="1" as="geometry">
            <mxPoint x="540" y="620" as="sourcePoint" />
            <mxPoint x="640" y="520" as="targetPoint" />
          </mxGeometry>
        </mxCell>
        <mxCell id="-tF7ZBKWb7ZHzIYpN41H-47" value="" style="fontSize=12;html=1;endArrow=ERone;endFill=1;rounded=0;entryX=0.5;entryY=1;entryDx=0;entryDy=0;exitX=0.5;exitY=0;exitDx=0;exitDy=0;" parent="1" source="-tF7ZBKWb7ZHzIYpN41H-9" target="-tF7ZBKWb7ZHzIYpN41H-1" edge="1">
          <mxGeometry width="100" height="100" relative="1" as="geometry">
            <mxPoint x="540" y="620" as="sourcePoint" />
            <mxPoint x="640" y="520" as="targetPoint" />
          </mxGeometry>
        </mxCell>
        <mxCell id="-tF7ZBKWb7ZHzIYpN41H-48" value="" style="fontSize=12;html=1;endArrow=ERoneToMany;rounded=0;exitX=0.5;exitY=1;exitDx=0;exitDy=0;entryX=0.5;entryY=0;entryDx=0;entryDy=0;" parent="1" source="-tF7ZBKWb7ZHzIYpN41H-9" target="-tF7ZBKWb7ZHzIYpN41H-13" edge="1">
          <mxGeometry width="100" height="100" relative="1" as="geometry">
            <mxPoint x="540" y="620" as="sourcePoint" />
            <mxPoint x="640" y="520" as="targetPoint" />
          </mxGeometry>
        </mxCell>
        <mxCell id="-tF7ZBKWb7ZHzIYpN41H-49" value="" style="endArrow=none;html=1;rounded=0;exitX=0.5;exitY=1;exitDx=0;exitDy=0;entryX=0.5;entryY=0;entryDx=0;entryDy=0;" parent="1" source="-tF7ZBKWb7ZHzIYpN41H-13" target="-tF7ZBKWb7ZHzIYpN41H-24" edge="1">
          <mxGeometry relative="1" as="geometry">
            <mxPoint x="510" y="570" as="sourcePoint" />
            <mxPoint x="670" y="570" as="targetPoint" />
          </mxGeometry>
        </mxCell>
        <mxCell id="-tF7ZBKWb7ZHzIYpN41H-51" value="" style="endArrow=none;html=1;rounded=0;exitX=0.75;exitY=1;exitDx=0;exitDy=0;entryX=0;entryY=0;entryDx=0;entryDy=0;" parent="1" source="-tF7ZBKWb7ZHzIYpN41H-13" target="-tF7ZBKWb7ZHzIYpN41H-29" edge="1">
          <mxGeometry relative="1" as="geometry">
            <mxPoint x="510" y="570" as="sourcePoint" />
            <mxPoint x="670" y="570" as="targetPoint" />
          </mxGeometry>
        </mxCell>
        <mxCell id="-tF7ZBKWb7ZHzIYpN41H-52" value="" style="endArrow=none;html=1;rounded=0;entryX=1;entryY=1;entryDx=0;entryDy=0;exitX=-0.01;exitY=0.325;exitDx=0;exitDy=0;exitPerimeter=0;" parent="1" source="-tF7ZBKWb7ZHzIYpN41H-22" target="-tF7ZBKWb7ZHzIYpN41H-13" edge="1">
          <mxGeometry relative="1" as="geometry">
            <mxPoint x="240" y="550" as="sourcePoint" />
            <mxPoint x="400" y="550" as="targetPoint" />
          </mxGeometry>
        </mxCell>
        <mxCell id="-tF7ZBKWb7ZHzIYpN41H-53" value="" style="endArrow=none;html=1;rounded=0;entryX=0.5;entryY=1;entryDx=0;entryDy=0;exitX=0.5;exitY=0;exitDx=0;exitDy=0;" parent="1" source="-tF7ZBKWb7ZHzIYpN41H-1" target="-tF7ZBKWb7ZHzIYpN41H-28" edge="1">
          <mxGeometry relative="1" as="geometry">
            <mxPoint x="420" y="540" as="sourcePoint" />
            <mxPoint x="580" y="540" as="targetPoint" />
          </mxGeometry>
        </mxCell>
        <mxCell id="-tF7ZBKWb7ZHzIYpN41H-54" value="" style="endArrow=none;html=1;rounded=0;exitX=0.5;exitY=1;exitDx=0;exitDy=0;entryX=0.5;entryY=0;entryDx=0;entryDy=0;" parent="1" source="-tF7ZBKWb7ZHzIYpN41H-25" target="-tF7ZBKWb7ZHzIYpN41H-3" edge="1">
          <mxGeometry relative="1" as="geometry">
            <mxPoint x="420" y="540" as="sourcePoint" />
            <mxPoint x="580" y="540" as="targetPoint" />
          </mxGeometry>
        </mxCell>
        <mxCell id="-tF7ZBKWb7ZHzIYpN41H-55" value="" style="endArrow=none;html=1;rounded=0;exitX=1;exitY=1;exitDx=0;exitDy=0;entryX=0;entryY=0;entryDx=0;entryDy=0;" parent="1" source="-tF7ZBKWb7ZHzIYpN41H-27" target="-tF7ZBKWb7ZHzIYpN41H-3" edge="1">
          <mxGeometry relative="1" as="geometry">
            <mxPoint x="420" y="540" as="sourcePoint" />
            <mxPoint x="580" y="540" as="targetPoint" />
          </mxGeometry>
        </mxCell>
        <mxCell id="-tF7ZBKWb7ZHzIYpN41H-56" value="" style="endArrow=none;html=1;rounded=0;exitX=1;exitY=0.5;exitDx=0;exitDy=0;entryX=0;entryY=0.5;entryDx=0;entryDy=0;" parent="1" source="-tF7ZBKWb7ZHzIYpN41H-26" target="-tF7ZBKWb7ZHzIYpN41H-3" edge="1">
          <mxGeometry relative="1" as="geometry">
            <mxPoint x="420" y="540" as="sourcePoint" />
            <mxPoint x="580" y="540" as="targetPoint" />
          </mxGeometry>
        </mxCell>
        <mxCell id="-tF7ZBKWb7ZHzIYpN41H-60" value="" style="fontSize=12;html=1;endArrow=ERoneToMany;rounded=0;exitX=1;exitY=0.5;exitDx=0;exitDy=0;entryX=0.25;entryY=1;entryDx=0;entryDy=0;" parent="1" source="-tF7ZBKWb7ZHzIYpN41H-7" target="-tF7ZBKWb7ZHzIYpN41H-13" edge="1">
          <mxGeometry width="100" height="100" relative="1" as="geometry">
            <mxPoint x="450" y="590" as="sourcePoint" />
            <mxPoint x="550" y="490" as="targetPoint" />
          </mxGeometry>
        </mxCell>
        <mxCell id="-tF7ZBKWb7ZHzIYpN41H-61" value="" style="edgeStyle=entityRelationEdgeStyle;fontSize=12;html=1;endArrow=ERoneToMany;rounded=0;exitX=0.5;exitY=0;exitDx=0;exitDy=0;entryX=0;entryY=0.75;entryDx=0;entryDy=0;" parent="1" source="-tF7ZBKWb7ZHzIYpN41H-7" target="-tF7ZBKWb7ZHzIYpN41H-13" edge="1">
          <mxGeometry width="100" height="100" relative="1" as="geometry">
            <mxPoint x="450" y="590" as="sourcePoint" />
            <mxPoint x="550" y="490" as="targetPoint" />
          </mxGeometry>
        </mxCell>
      </root>
    </mxGraphModel>
  </diagram>
</mxfile>
